<?xml version="1.0" standalone="no"?>
<!DOCTYPE svg PUBLIC "-//W3C//DTD SVG 20010904//EN"
 "http://www.w3.org/TR/2001/REC-SVG-20010904/DTD/svg10.dtd">
<svg version="1.0" xmlns="http://www.w3.org/2000/svg"
 width="400.000000pt" height="400.000000pt" viewBox="0 0 400.000000 400.000000"
 preserveAspectRatio="xMidYMid meet">

<g transform="translate(0.000000,400.000000) scale(0.100000,-0.100000)"
fill="#565bd9" stroke="none">
<path d="M1830 3593 c-47 -30 -1211 -1198 -1236 -1239 -79 -133 -83 -266 -14
-405 15 -30 212 -235 638 -662 340 -340 632 -627 650 -638 62 -39 133 -59 212
-59 81 0 129 12 200 49 57 29 1232 1198 1262 1255 42 82 85 32 -770 889 -427
429 -794 790 -814 803 -43 28 -92 30 -128 7z m1321 -1541 c52 -51 89 -97 89
-108 0 -27 -1063 -1086 -1109 -1104 -27 -11 -42 -11 -80 -1 -57 15 -78 34
-103 90 -18 38 -19 48 -7 90 11 42 57 91 548 584 338 339 542 537 555 537 10
0 57 -38 107 -88z"/>
</g>
</svg>
